HIERARCHY
ROOT hip
{
	OFFSET 0.000000 0.000000 0.000000 
	CHANNELS 6 Xposition Yposition Zposition Zrotation Yrotation Xrotation
	JOINT abdomen
	{
		OFFSET 0.000000 20.688101 -0.731520 
		CHANNELS 3 Zrotation Xrotation Yrotation
		JOINT chest
		{
			OFFSET 0.000000 11.704300 -0.487680 
			CHANNELS 3 Zrotation Xrotation Yrotation
			JOINT neck
			{
				OFFSET 0.000000 22.189400 -2.194560 
				CHANNELS 3 Zrotation Xrotation Yrotation
				JOINT head
				{
					OFFSET -0.243840 7.071330 1.219200 
					CHANNELS 3 Zrotation Xrotation Yrotation
					End Site
					{
						OFFSET 1.000000 0.000000 0.000000 
					}
				}
			}
			JOINT rCollar
			{
				OFFSET -2.682240 19.263399 -4.876800 
				CHANNELS 3 Zrotation Xrotation Yrotation
				JOINT rShldr
				{
					OFFSET -8.778240 -1.950730 1.463040 
					CHANNELS 3 Zrotation Xrotation Yrotation
					JOINT rForeArm
					{
						OFFSET -28.174200 -1.711500 0.487680 
						CHANNELS 3 Zrotation Xrotation Yrotation
						JOINT rHand
						{
							OFFSET -22.587900 0.773209 7.071360 
							CHANNELS 3 Zrotation Xrotation Yrotation
							End Site
							{
								OFFSET -1.692250 -0.517670 -0.607171 
							}
						}
					}
				}
			}
			JOINT lCollar
			{
				OFFSET 2.682240 19.263399 -4.876800 
				CHANNELS 3 Zrotation Xrotation Yrotation
				JOINT lShldr
				{
					OFFSET 8.778240 -1.950730 1.463040 
					CHANNELS 3 Zrotation Xrotation Yrotation
					JOINT lForeArm
					{
						OFFSET 28.174200 -1.711500 0.487680 
						CHANNELS 3 Zrotation Xrotation Yrotation
						JOINT lHand
						{
							OFFSET 22.587900 0.773209 7.071360 
							CHANNELS 3 Zrotation Xrotation Yrotation
							End Site
							{
								OFFSET 1.692250 -0.517670 -0.607171 
							}
						}
					}
				}
			}
		}
	}
	JOINT rButtock
	{
		OFFSET -8.778240 4.350840 1.219200 
		CHANNELS 3 Zrotation Xrotation Yrotation
		JOINT rThigh
		{
			OFFSET 0.000000 -1.706870 -2.194560 
			CHANNELS 3 Zrotation Xrotation Yrotation
			JOINT rShin
			{
				OFFSET 0.000000 -36.819901 0.731520 
				CHANNELS 3 Zrotation Xrotation Yrotation
				JOINT rFoot
				{
					OFFSET 0.731520 -45.110401 -5.120640 
					CHANNELS 3 Zrotation Xrotation Yrotation
					End Site
					{
						OFFSET -1.122100 -3.699640 12.103000 
					}
				}
			}
		}
	}
	JOINT lButtock
	{
		OFFSET 8.778240 4.350840 1.219200 
		CHANNELS 3 Zrotation Xrotation Yrotation
		JOINT lThigh
		{
			OFFSET 0.000000 -1.706870 -2.194560 
			CHANNELS 3 Zrotation Xrotation Yrotation
			JOINT lShin
			{
				OFFSET 0.000000 -36.819901 0.731520 
				CHANNELS 3 Zrotation Xrotation Yrotation
				JOINT lFoot
				{
					OFFSET -0.731520 -45.110401 -5.120640 
					CHANNELS 3 Zrotation Xrotation Yrotation
					End Site
					{
						OFFSET 1.122100 -3.699640 12.103000 
					}
				}
			}
		}
	}
}
MOTION
Frames: 15
Frame Time: 0.008333
-5.742240 83.910004 -198.483994 -0.266600 -0.623000 3.297100 -0.031833 0.584685 -2.990930 6.632130 -4.710420 -0.557102 -20.118799 11.758300 -12.865200 21.896700 -10.150900 -21.490101 -0.000000 0.000000 0.000000 83.517700 7.486580 -5.284080 -12.063100 -5.353070 21.881100 -0.088068 -8.201110 -1.161070 -0.000000 0.000000 0.000000 -90.889603 9.132430 4.146520 12.121600 -5.393110 -21.996000 0.181654 11.725800 -1.672960 -0.000000 0.000000 -0.000000 2.024820 -16.044300 0.376259 -0.214072 33.450401 0.463871 -0.519457 4.152240 0.144597 0.000000 0.000000 0.000000 -0.020302 -12.783100 -5.054680 0.185822 28.693100 -0.395884 0.504691 3.914160 -0.137511 
-5.755900 83.906097 -198.444000 -0.236900 -0.614500 3.357500 -0.049751 0.586141 -2.918900 6.411060 -4.474310 -0.549415 -19.406200 11.224100 -12.431200 21.089001 -9.748030 -20.783100 -0.000000 0.000000 -0.000000 80.413002 7.118590 -4.903120 -11.684700 -5.179480 21.055401 -0.076702 -7.789840 -1.101810 -0.000000 0.000000 -0.000000 -87.508301 9.225850 3.837150 11.821800 -5.272770 -21.320801 0.157033 11.101700 -1.580720 -0.000000 0.000000 -0.000000 1.989540 -15.655800 0.322770 -0.196239 32.357101 0.441050 -0.520323 4.058660 0.142788 0.000000 0.000000 0.000000 0.017737 -12.402600 -4.885630 0.169012 27.531000 -0.373375 0.505602 3.910520 -0.137570 
-5.791070 83.900803 -198.421997 -0.258000 -0.682800 3.429100 -0.063860 0.587392 -2.854100 6.277880 -4.308940 -0.539937 -18.961201 10.912800 -12.178300 20.584499 -9.528710 -20.373199 -0.000000 0.000000 -0.000000 78.540398 6.873240 -4.616690 -11.446100 -5.067660 20.542900 -0.069963 -7.525310 -1.063800 -0.000000 0.000000 -0.000000 -85.473099 9.331260 3.596150 11.654700 -5.209380 -20.943399 0.142377 10.695000 -1.520970 -0.000000 0.000000 -0.000000 1.990180 -15.428800 0.333581 -0.186025 31.699699 0.427726 -0.520889 4.003640 0.141733 0.000000 0.000000 0.000000 0.041157 -12.171100 -4.793200 0.158914 26.829599 -0.359604 0.506206 3.908270 -0.137612 
-5.874120 83.889999 -198.468002 -0.346500 -1.090000 3.546000 -0.078278 0.590853 -2.798500 6.277050 -4.240820 -0.527763 -18.922001 10.929900 -12.199800 20.547199 -9.595110 -20.414400 -0.000000 0.000000 -0.000000 78.512299 6.788860 -4.459420 -11.418400 -5.049070 20.489799 -0.068872 -7.466100 -1.055330 -0.000000 0.000000 -0.000000 -85.451401 9.449290 3.437260 11.685900 -5.230650 -21.003799 0.140505 10.623600 -1.510580 -0.000000 0.000000 -0.000000 2.042190 -15.449900 0.442059 -0.186082 31.700800 0.427927 -0.521019 4.006660 0.141815 0.000000 0.000000 0.000000 0.045018 -12.167500 -4.809070 0.157419 26.818899 -0.357932 0.506355 3.908030 -0.137629 
-5.848290 83.894302 -198.389999 -0.285400 -0.447600 3.516900 -0.084805 0.588362 -2.705360 6.271120 -4.163570 -0.505466 -18.888399 10.994900 -12.211700 20.542500 -9.718900 -20.438400 -0.000000 0.000000 -0.000000 78.475899 6.695970 -4.296370 -11.380400 -5.023570 20.417000 -0.067961 -7.416420 -1.048230 -0.000000 0.000000 -0.000000 -85.425598 9.467040 3.259330 11.704100 -5.243050 -21.039101 0.139666 10.591200 -1.505880 -0.000000 0.000000 -0.000000 2.114960 -15.473600 0.609463 -0.186107 31.698000 0.428334 -0.521079 4.010910 0.141911 0.000000 0.000000 0.000000 0.049502 -12.160900 -4.821640 0.155363 26.819599 -0.355792 0.506536 3.907570 -0.137646 
-5.904380 83.896500 -198.360001 -0.267600 -0.929200 3.503600 -0.080297 0.580606 -2.605280 6.263180 -4.097360 -0.480631 -18.864700 11.085100 -12.212500 20.546700 -9.851340 -20.445200 -0.000000 -0.000000 -0.000000 78.434402 6.636640 -4.149440 -11.347400 -5.001410 20.353800 -0.067497 -7.391390 -1.044650 -0.000000 -0.000000 -0.000000 -85.408501 9.468030 3.107550 11.725800 -5.258020 -21.080799 0.138691 10.555400 -1.500650 -0.000000 0.000000 -0.000000 2.195460 -15.488900 0.789413 -0.186025 31.686800 0.428597 -0.521090 4.015210 0.142001 0.000000 0.000000 0.000000 0.054747 -12.147300 -4.842020 0.153529 26.823999 -0.353916 0.506718 3.907130 -0.137664 
-5.936580 83.896400 -198.328003 -0.296700 -1.044400 3.519300 -0.061620 0.568277 -2.528870 6.256400 -4.062360 -0.460835 -18.854700 11.178000 -12.200700 20.535801 -9.943670 -20.434700 -0.000000 -0.000000 0.000000 78.390503 6.653010 -4.040440 -11.334700 -4.992900 20.329500 -0.067748 -7.406100 -1.046750 -0.000000 -0.000000 0.000000 -85.412300 9.535920 3.026950 11.767500 -5.286930 -21.160801 0.136451 10.473300 -1.488710 -0.000000 0.000000 -0.000000 2.270440 -15.484700 0.935475 -0.185760 31.663099 0.428370 -0.521073 4.018360 0.142063 0.000000 0.000000 0.000000 0.060910 -12.122600 -4.881340 0.152705 26.824100 -0.353034 0.506869 3.906930 -0.137682 
-5.959140 83.892899 -198.300995 -0.263800 -1.122700 3.569000 -0.018007 0.549615 -2.483610 6.252990 -4.075430 -0.447183 -18.872101 11.318700 -12.159600 20.518101 -9.998750 -20.384800 -0.000000 -0.000000 0.000000 78.339104 6.782370 -4.003490 -11.346300 -5.000620 20.351700 -0.069040 -7.477280 -1.056930 -0.000000 -0.000000 0.000000 -85.457001 9.710850 3.079170 11.846300 -5.341760 -21.312099 0.132338 10.319400 -1.466330 -0.000000 0.000000 -0.000000 2.341670 -15.432700 1.038040 -0.185208 31.618401 0.427355 -0.521010 4.020090 0.142090 0.000000 0.000000 0.000000 0.070480 -12.060700 -4.946840 0.153427 26.816999 -0.353679 0.507002 3.906870 -0.137700 
-6.025760 83.890800 -198.302002 -0.348600 -1.201400 3.608500 0.045573 0.524899 -2.453410 6.250840 -4.121970 -0.435933 -18.910900 11.502300 -12.095300 20.501400 -10.037300 -20.302999 0.000000 -0.000000 0.000000 78.280602 6.993580 -4.017530 -11.374000 -5.019130 20.404900 -0.071194 -7.592630 -1.073420 0.000000 -0.000000 0.000000 -85.531700 9.942200 3.223870 11.948700 -5.413260 -21.509701 0.127201 10.121200 -1.437550 -0.000000 0.000000 -0.000000 2.414180 -15.347200 1.120870 -0.184440 31.557501 0.425807 -0.520899 4.021030 0.142092 0.000000 0.000000 0.000000 0.082756 -11.972200 -5.031120 0.155167 26.807199 -0.355348 0.507129 3.906900 -0.137720 
-6.078420 83.892502 -198.276001 -0.464100 -1.293900 3.617100 0.108610 0.497885 -2.433470 6.246690 -4.175010 -0.427400 -18.945299 11.630700 -12.040900 20.461700 -10.037400 -20.232700 0.000000 -0.000000 0.000000 78.225304 7.226270 -4.021590 -11.415100 -5.046710 20.483601 -0.073710 -7.723750 -1.092190 0.000000 -0.000000 0.000000 -85.600304 10.177600 3.352880 12.045800 -5.481130 -21.697901 0.122058 9.915660 -1.407770 -0.000000 0.000000 -0.000000 2.479840 -15.281800 1.187680 -0.183642 31.495501 0.424208 -0.520781 4.021310 0.142081 0.000000 0.000000 0.000000 0.092915 -11.908000 -5.123410 0.157112 26.798000 -0.357219 0.507207 3.907260 -0.137738 
-6.092400 83.903503 -198.145004 -0.439900 -1.471800 3.524800 0.150595 0.472325 -2.419020 6.237240 -4.207550 -0.421896 -18.948700 11.606100 -12.029100 20.374599 -9.976980 -20.217800 0.000000 -0.000000 0.000000 78.182701 7.420100 -3.954540 -11.466800 -5.081640 20.582500 -0.076028 -7.842240 -1.109160 0.000000 -0.000000 0.000000 -85.624199 10.365100 3.357620 12.109000 -5.525360 -21.821100 0.117784 9.739930 -1.382330 -0.000000 0.000000 -0.000000 2.530760 -15.290000 1.242200 -0.182997 31.447399 0.423037 -0.520698 4.021100 0.142064 0.000000 0.000000 0.000000 0.095754 -11.919200 -5.213000 0.158452 26.792700 -0.358472 0.507197 3.908200 -0.137756 
-6.089370 83.903999 -198.130997 -0.264000 -0.865800 3.541500 0.157333 0.441895 -2.402080 6.220390 -4.214860 -0.417597 -18.898600 11.336100 -12.087400 20.184000 -9.813550 -20.297899 0.000000 -0.000000 0.000000 78.156700 7.558660 -3.785710 -11.534100 -5.127350 20.711300 -0.077832 -7.932730 -1.122130 0.000000 -0.000000 0.000000 -85.578598 10.463500 3.166760 12.113300 -5.528100 -21.829700 0.114756 9.613350 -1.364030 -0.000000 0.000000 -0.000000 2.549350 -15.427700 1.277430 -0.182669 31.426399 0.422587 -0.520674 4.020640 0.142051 0.000000 0.000000 0.000000 0.075968 -12.052300 -5.301040 0.158953 26.790501 -0.358779 0.507081 3.909880 -0.137773 
-6.136650 83.876297 -198.209000 -0.283500 -1.410700 3.847700 0.142666 0.407034 -2.387430 6.198300 -4.210500 -0.414971 -18.815500 10.895200 -12.192300 19.920401 -9.571350 -20.440500 0.000000 -0.000000 0.000000 78.141296 7.674170 -3.552390 -11.616300 -5.183350 20.869200 -0.079456 -8.012980 -1.133630 0.000000 -0.000000 0.000000 -85.487999 10.509500 2.852140 12.079800 -5.504330 -21.764900 0.112367 9.512990 -1.349520 -0.000000 0.000000 -0.000000 2.545180 -15.652400 1.294120 -0.182521 31.421400 0.422548 -0.520682 4.019800 0.142035 0.000000 0.000000 0.000000 0.040307 -12.269100 -5.392100 0.159055 26.790199 -0.358616 0.506882 3.912130 -0.137790 
-6.137930 83.878502 -198.218994 -0.399500 -0.942000 3.840000 0.128115 0.381648 -2.389420 6.174030 -4.194970 -0.417776 -18.736099 10.435500 -12.300200 19.688499 -9.328380 -20.580900 0.000000 -0.000000 -0.000000 78.130203 7.779290 -3.295290 -11.702300 -5.242100 21.034800 -0.081288 -8.104230 -1.146720 0.000000 -0.000000 -0.000000 -85.386803 10.567800 2.519720 12.050000 -5.483390 -21.707199 0.109958 9.412470 -1.335000 -0.000000 0.000000 -0.000000 2.551180 -15.870500 1.307620 -0.182277 31.411200 0.422485 -0.520687 4.018080 0.142000 0.000000 0.000000 0.000000 0.016797 -12.493500 -5.480540 0.158953 26.794600 -0.358360 0.506623 3.914730 -0.137805 
-6.211010 83.845200 -198.274994 -0.409700 -1.448600 4.208400 0.135188 0.379644 -2.422400 6.150650 -4.168750 -0.429768 -18.695000 10.108900 -12.367000 19.591299 -9.162110 -20.654200 -0.000000 -0.000000 -0.000000 78.117302 7.886750 -3.055130 -11.781000 -5.296140 21.186600 -0.083754 -8.227770 -1.164430 -0.000000 -0.000000 -0.000000 -85.308502 10.703900 2.275320 12.065600 -5.494710 -21.736799 0.106927 9.285430 -1.316640 -0.000000 0.000000 -0.000000 2.600370 -15.988400 1.333290 -0.181662 31.374800 0.421963 -0.520656 4.015030 0.141933 0.000000 0.000000 0.000000 0.034030 -12.649800 -5.560520 0.158840 26.806400 -0.358388 0.506326 3.917450 -0.137817 
